<?xml version="1.0" standalone="no"?>
<!DOCTYPE svg PUBLIC "-//W3C//DTD SVG 20010904//EN"
 "http://www.w3.org/TR/2001/REC-SVG-20010904/DTD/svg10.dtd">
<svg version="1.0" xmlns="http://www.w3.org/2000/svg"
 width="512.000000pt" height="512.000000pt" viewBox="0 0 512.000000 512.000000"
 preserveAspectRatio="xMidYMid meet">

<g transform="translate(0.000000,512.000000) scale(0.100000,-0.100000)"
fill="#000000" stroke="none">
<path d="M240 5027 c-49 -16 -133 -102 -148 -153 -17 -58 -17 -730 0 -788 16
-55 99 -138 154 -154 58 -17 730 -17 788 0 26 8 60 31 91 63 32 31 55 65 63
91 17 57 17 730 0 786 -6 22 -31 62 -55 88 -71 79 -79 80 -497 79 -233 -1
-373 -5 -396 -12z m775 -172 l25 -24 0 -351 0 -351 -25 -24 -24 -25 -351 0
-351 0 -24 25 -25 24 0 351 0 351 25 24 24 25 351 0 351 0 24 -25z"/>
<path d="M560 4640 l0 -80 -80 0 -80 0 0 -80 0 -80 80 0 80 0 0 -80 0 -80 80
0 80 0 0 80 0 80 80 0 80 0 0 80 0 80 -80 0 -80 0 0 80 0 80 -80 0 -80 0 0
-80z"/>
<path d="M1520 5027 c-49 -16 -133 -102 -148 -153 -8 -29 -12 -146 -12 -394 0
-248 4 -365 12 -394 16 -55 99 -138 154 -154 58 -17 730 -17 788 0 55 16 138
99 154 154 17 57 17 730 0 786 -6 22 -31 62 -55 88 -71 79 -79 80 -497 79
-233 -1 -373 -5 -396 -12z m775 -172 l25 -24 0 -351 0 -351 -25 -24 -24 -25
-351 0 -351 0 -24 25 -25 24 0 351 0 351 25 24 24 25 351 0 351 0 24 -25z"/>
<path d="M1680 4480 l0 -80 240 0 240 0 0 80 0 80 -240 0 -240 0 0 -80z"/>
<path d="M4292 4286 c-416 -97 -489 -117 -524 -142 -72 -51 -102 -142 -77
-231 10 -38 31 -67 103 -141 l90 -93 -342 -342 -342 -342 -320 320 -320 319
-38 -37 c-41 -41 -52 -45 -52 -22 0 55 -89 153 -159 173 -55 17 -729 16 -785
0 -55 -16 -138 -99 -154 -154 -16 -56 -17 -730 0 -785 20 -70 118 -159 173
-159 8 0 15 -3 15 -8 0 -4 -333 -340 -740 -747 l-740 -740 0 -537 0 -538 2240
0 2240 0 0 209 0 209 53 30 c183 105 340 313 399 531 30 109 30 333 0 442 -59
218 -216 426 -399 531 l-53 30 0 492 0 491 44 -3 c32 -3 60 3 100 21 95 44 95
44 222 595 63 268 113 501 114 517 1 119 -111 227 -231 224 -19 0 -251 -51
-517 -113z m568 -66 c11 -11 20 -27 20 -36 0 -23 -208 -925 -220 -951 -5 -12
-21 -25 -36 -29 -23 -6 -40 7 -165 132 l-139 139 -560 -560 -560 -560 -320
320 -320 320 -1040 -1040 -1040 -1040 -102 103 -103 102 1143 1142 1142 1143
320 -320 320 -320 457 457 458 458 -138 138 c-139 139 -155 165 -121 193 15
12 917 227 962 228 12 1 31 -8 42 -19z m-2565 -645 c22 -21 25 -33 25 -102 l0
-78 -137 -137 -138 -138 -182 0 -183 0 0 -80 0 -80 102 0 103 0 -80 -80 -80
-80 -78 0 c-69 0 -81 3 -102 25 l-25 24 0 351 0 351 25 24 24 25 351 0 351 0
24 -25z m2067 -372 l38 -37 0 -518 c0 -285 -1 -518 -2 -518 -2 0 -39 7 -83 15
-44 8 -115 14 -157 15 l-78 0 0 200 0 200 -80 0 -80 0 0 -220 c0 -179 -3 -220
-14 -220 -29 0 -163 -63 -232 -109 l-74 -49 0 59 0 59 -80 0 -80 0 0 -146 0
-146 -35 -60 c-88 -149 -119 -268 -119 -448 0 -181 31 -296 121 -452 l33 -56
0 -266 0 -266 -160 0 -160 0 0 840 0 840 -80 0 -80 0 0 -840 0 -840 -160 0
-160 0 0 1080 0 1080 -80 0 -80 0 0 -1080 0 -1080 -160 0 -160 0 0 840 0 840
-80 0 -80 0 0 -840 0 -840 -160 0 -160 0 0 600 0 600 -80 0 -80 0 0 -600 0
-600 -160 0 -160 0 0 360 0 360 -80 0 -80 0 0 -360 0 -360 -160 0 -160 0 0
120 0 120 -80 0 -80 0 0 -120 0 -120 -160 0 -160 0 0 342 0 343 120 -120 120
-119 40 39 40 39 0 -62 0 -62 80 0 80 0 0 143 0 142 160 160 160 160 0 -63 0
-62 80 0 80 0 0 143 0 142 160 160 160 160 0 -63 0 -62 80 0 80 0 0 143 0 142
160 160 160 160 0 -63 0 -62 80 0 80 0 0 143 0 142 160 160 160 160 0 -63 0
-62 80 0 80 0 0 62 0 63 160 -160 160 -160 0 -142 0 -143 80 0 80 0 0 62 0 62
40 -39 40 -39 120 119 120 120 0 -63 0 -62 80 0 80 0 0 143 0 142 160 160 160
160 0 -63 0 -62 80 0 80 0 0 142 0 143 117 117 c65 65 120 118 122 118 3 0 22
-17 43 -37z m13 -1237 c113 -36 198 -89 290 -181 91 -91 144 -175 182 -290 23
-71 26 -96 26 -215 0 -119 -3 -144 -26 -215 -38 -115 -91 -199 -182 -290 -91
-91 -175 -144 -290 -182 -71 -23 -96 -26 -215 -26 -119 0 -144 3 -215 26 -115
38 -199 91 -290 182 -91 91 -144 175 -182 290 -23 71 -26 96 -26 215 -1 118 3
145 25 212 39 119 92 204 182 294 110 110 236 177 381 204 88 16 250 4 340
-24z m-534 -1503 l79 -28 0 -97 0 -98 -160 0 -160 0 0 179 0 179 81 -54 c45
-29 117 -66 160 -81z m559 -128 l0 -95 -160 0 -160 0 0 80 0 80 83 1 c45 1
111 7 147 14 36 7 71 13 78 14 9 1 12 -24 12 -94z"/>
<path d="M1680 3360 l0 -80 240 0 240 0 0 80 0 80 -240 0 -240 0 0 -80z"/>
<path d="M4080 1751 l0 -89 -30 -12 c-68 -28 -130 -129 -130 -210 0 -123 116
-240 239 -240 42 0 81 -38 81 -80 0 -41 -39 -80 -80 -80 -33 0 -80 38 -80 65
0 12 -15 15 -80 15 -89 0 -90 0 -68 -72 14 -48 76 -121 118 -138 l30 -12 0
-89 0 -89 80 0 80 0 0 89 0 89 30 12 c68 28 130 129 130 210 0 123 -116 240
-239 240 -42 0 -81 38 -81 80 0 41 39 80 80 80 33 0 80 -38 80 -65 0 -12 15
-15 80 -15 89 0 90 0 68 72 -14 48 -76 121 -118 138 l-30 12 0 89 0 89 -80 0
-80 0 0 -89z"/>
<path d="M240 3747 c-49 -16 -133 -102 -148 -153 -17 -58 -17 -730 0 -788 16
-55 99 -138 154 -154 58 -17 730 -17 788 0 26 8 60 31 91 63 32 31 55 65 63
91 17 57 17 730 0 786 -6 22 -31 62 -55 88 -71 79 -79 80 -497 79 -233 -1
-373 -5 -396 -12z m775 -172 l25 -24 0 -351 0 -351 -25 -24 -24 -25 -351 0
-351 0 -24 25 -25 24 0 351 0 351 25 24 24 25 351 0 351 0 24 -25z"/>
<path d="M397 3442 c-26 -26 -47 -52 -47 -57 0 -5 39 -49 87 -97 l88 -88 -90
-90 -90 -90 58 -57 57 -58 90 90 90 90 90 -90 90 -90 57 58 58 57 -90 90 -90
90 88 88 c48 48 87 92 87 98 0 12 -92 104 -105 104 -5 0 -49 -39 -97 -87 l-88
-88 -88 88 c-48 48 -92 87 -98 87 -5 0 -31 -22 -57 -48z"/>
</g>
</svg>
