<?xml version="1.0" standalone="no"?>
<!DOCTYPE svg PUBLIC "-//W3C//DTD SVG 20010904//EN"
 "http://www.w3.org/TR/2001/REC-SVG-20010904/DTD/svg10.dtd">
<svg version="1.0" xmlns="http://www.w3.org/2000/svg"
 width="512.000000pt" height="512.000000pt" viewBox="0 0 512.000000 512.000000"
 preserveAspectRatio="xMidYMid meet">

<g transform="translate(0.000000,512.000000) scale(0.100000,-0.100000)"
fill="#000000" stroke="none">
<path d="M3575 5114 c-180 -26 -295 -57 -426 -114 -202 -89 -401 -243 -535
-413 l-30 -39 -134 39 -134 40 -18 59 c-35 120 -133 190 -254 182 -149 -9
-247 -141 -221 -295 l9 -52 -119 -206 c-113 -197 -119 -205 -143 -198 -24 8
-131 8 -176 1 -18 -2 -52 36 -184 200 -157 198 -161 205 -151 234 30 85 6 176
-63 244 -69 70 -151 91 -247 64 -88 -24 -169 -137 -169 -235 0 -49 35 -145 59
-159 7 -4 -57 -143 -174 -376 -176 -352 -186 -370 -213 -370 -161 0 -282 -161
-237 -315 30 -104 121 -175 226 -175 l54 0 115 -197 c63 -108 127 -218 142
-244 l27 -46 -46 -33 c-69 -50 -169 -146 -232 -225 -334 -413 -391 -966 -149
-1438 160 -312 432 -544 765 -653 135 -44 260 -64 404 -64 112 0 273 16 295
29 7 4 -22 194 -92 601 -56 327 -102 596 -101 597 1 0 270 -45 597 -101 410
-71 597 -100 601 -92 13 23 29 183 29 295 0 566 -365 1069 -906 1250 -304 102
-677 83 -956 -49 -49 -23 -65 -27 -74 -17 -6 6 -70 114 -143 239 l-132 228 22
42 c45 88 42 181 -8 255 l-26 38 184 366 183 367 50 5 c28 3 60 8 71 12 17 5
46 -27 183 -200 159 -201 163 -208 153 -237 -29 -83 -5 -174 64 -245 68 -70
149 -90 249 -62 53 15 138 100 154 155 15 50 16 113 2 149 -9 23 3 48 111 236
109 188 124 210 143 204 89 -28 175 -12 249 46 l37 30 110 -32 c61 -18 110
-35 110 -39 0 -4 -17 -45 -39 -91 -92 -200 -125 -356 -126 -589 0 -198 14
-287 72 -454 87 -250 247 -476 453 -641 148 -118 343 -215 525 -259 l90 -23 3
-96 3 -97 -81 0 -80 0 0 -893 c0 -988 -2 -947 64 -1052 113 -175 331 -238 522
-151 64 29 152 114 184 177 50 97 50 85 50 1032 l0 887 -80 0 -81 0 3 97 3 96
94 24 c653 164 1103 797 1043 1466 -31 346 -163 630 -406 873 -206 205 -461
341 -734 390 -86 15 -329 27 -387 18z m350 -180 c144 -24 313 -88 429 -162 76
-48 201 -149 247 -199 224 -240 339 -529 339 -853 0 -278 -81 -523 -246 -743
-354 -472 -1008 -626 -1534 -362 -610 307 -858 1050 -554 1657 18 36 38 69 44
73 8 5 160 -33 160 -40 0 -1 -22 -44 -49 -96 -247 -471 -105 -1051 333 -1364
89 -63 236 -131 351 -162 87 -23 120 -27 255 -27 176 -1 262 13 395 67 97 39
216 105 267 150 l38 32 -52 61 -52 62 -61 -44 c-474 -337 -1143 -145 -1362
391 -48 120 -65 210 -66 350 0 99 5 137 26 217 35 130 125 308 155 308 7 0
172 -48 367 -106 l354 -107 12 -49 12 -50 -162 -162 -162 -163 -51 14 c-147
37 -291 -66 -306 -218 -12 -121 79 -237 204 -260 94 -18 197 29 250 113 31 49
43 147 25 199 l-12 33 164 164 164 164 60 -12 c232 -46 385 223 231 405 -82
97 -263 103 -347 11 -14 -14 -31 -26 -38 -26 -11 0 -582 168 -633 186 -33 12
113 112 247 169 207 89 479 89 686 0 116 -49 181 -92 269 -174 171 -160 267
-353 286 -577 9 -99 0 -227 -23 -315 -22 -86 -84 -217 -140 -294 l-45 -63 63
-51 62 -51 23 27 c131 157 218 390 229 613 36 746 -695 1300 -1403 1064 -143
-48 -254 -113 -386 -226 l-70 -60 -79 22 c-43 13 -79 27 -79 33 0 6 37 47 83
91 291 287 674 407 1082 340z m-3040 -254 c40 -40 16 -122 -40 -132 -57 -11
-105 37 -96 97 9 61 88 81 136 35z m1214 15 c62 -32 55 -119 -12 -144 -48 -18
-107 23 -107 74 0 27 27 64 54 75 29 12 33 12 65 -5z m1909 -585 c30 -28 36
-62 18 -98 -39 -75 -151 -44 -148 40 2 65 83 101 130 58z m-2452 -191 c28 -55
-9 -113 -72 -113 -67 0 -105 83 -60 133 36 39 106 29 132 -20z m-1247 -395
c45 -57 5 -134 -69 -134 -32 0 -70 44 -70 81 0 74 95 109 139 53z m3030 -64
c31 -16 46 -65 31 -100 -34 -81 -150 -59 -150 29 0 63 64 101 119 71z m-2099
-1163 l0 -514 -437 -364 c-240 -200 -442 -368 -450 -372 -20 -12 -117 195
-149 319 -50 193 -43 442 18 634 47 148 155 334 262 449 49 52 179 156 183
146 2 -6 22 -42 46 -81 l42 -72 68 40 c37 21 67 43 67 47 0 5 -18 40 -40 77
-22 38 -40 72 -40 76 0 13 106 57 200 84 71 20 154 37 218 43 9 1 12 -108 12
-512z m310 492 c135 -25 312 -99 435 -182 33 -23 101 -81 152 -130 184 -178
300 -403 339 -657 14 -98 18 -234 6 -260 -6 -14 -73 -5 -511 71 -277 48 -519
90 -538 94 l-33 6 0 540 0 540 48 -6 c26 -4 72 -11 102 -16z m2240 -554 l0
-85 -80 0 -80 0 0 85 0 85 80 0 80 0 0 -85z m168 -327 l-3 -83 -245 0 -245 0
-3 83 -3 82 251 0 251 0 -3 -82z m2 -862 c0 -366 -4 -634 -10 -666 -22 -114
-124 -200 -239 -200 -114 0 -217 81 -240 190 -7 34 -11 260 -11 670 l0 620
250 0 250 0 0 -614z m-2615 -14 c106 -613 112 -547 -55 -538 -310 16 -564 126
-773 333 -37 37 -67 71 -67 75 0 12 792 670 798 663 3 -3 47 -243 97 -533z"/>
<path d="M3681 499 c-32 -13 -50 -38 -51 -71 0 -40 9 -57 42 -74 79 -41 155
54 96 120 -28 30 -55 38 -87 25z"/>
<path d="M1563 1399 c3 -13 56 -330 118 -704 61 -374 115 -684 119 -688 10
-11 199 30 300 65 375 133 675 433 808 808 35 101 76 290 65 300 -4 4 -314 58
-688 119 -374 62 -691 115 -704 118 -21 5 -23 3 -18 -18z m737 -269 c266 -45
485 -82 486 -83 1 -1 -10 -40 -25 -87 -113 -348 -393 -628 -741 -741 -47 -15
-86 -26 -87 -25 -1 1 -38 220 -83 486 -44 267 -83 498 -86 514 -6 26 -4 28 22
22 16 -3 247 -42 514 -86z"/>
</g>
</svg>
